<svg width="15" height="13" viewBox="0 0 15 13" fill="none" xmlns="http://www.w3.org/2000/svg">
<path d="M14.1562 2.42188C14.1719 2.46875 14.2031 2.67969 14.25 3.05469C14.2812 3.42969 14.2422 3.89844 14.1328 4.46094C14.0234 5.03906 13.7734 5.64062 13.3828 6.26562C12.4922 7.57812 11.0234 8.49219 8.97656 9.00781C8.75781 9.07031 8.55469 9.19531 8.36719 9.38281C8.17969 9.55469 8.07812 9.75781 8.0625 9.99219V11.375H9.91406C10.2422 11.4062 10.4219 11.5938 10.4531 11.9375C10.4375 12.2812 10.2578 12.4688 9.91406 12.5H5.0625C4.73438 12.4688 4.55469 12.2812 4.52344 11.9375C4.55469 11.5938 4.73438 11.4062 5.0625 11.375H6.9375V9.99219C6.92188 9.75781 6.82031 9.55469 6.63281 9.38281C6.44531 9.19531 6.24219 9.07031 6.02344 9.00781C3.97656 8.49219 2.50781 7.57812 1.61719 6.26562C1.22656 5.64062 0.976562 5.03906 0.867188 4.46094C0.757812 3.89844 0.71875 3.42969 0.75 3.05469C0.796875 2.67969 0.828125 2.46875 0.84375 2.42188C0.921875 2.15625 1.10156 2.01563 1.38281 2H3.75C3.75 1.9375 3.75 1.88281 3.75 1.83594C3.73438 1.60156 3.73438 1.39844 3.75 1.22656C3.76562 1.02344 3.84375 0.851562 3.98438 0.710938C4.125 0.570312 4.29688 0.5 4.5 0.5H10.5C10.7031 0.5 10.875 0.570312 11.0156 0.710938C11.1562 0.851562 11.2344 1.02344 11.25 1.22656C11.25 1.44531 11.25 1.70312 11.25 2H13.6172C13.8984 2.01563 14.0781 2.15625 14.1562 2.42188ZM2.55469 5.65625C3.11719 6.46875 3.96875 7.10156 5.10938 7.55469C4.6875 6.86719 4.375 6.13281 4.17188 5.35156C3.95312 4.58594 3.82031 3.84375 3.77344 3.125H1.875C1.85938 3.40625 1.89062 3.77344 1.96875 4.22656C2.04688 4.67969 2.24219 5.15625 2.55469 5.65625ZM7.5 8.75C7.53125 8.71875 7.5625 8.6875 7.59375 8.65625C8.03125 8.1875 8.4375 7.67969 8.8125 7.13281C9.20312 6.57031 9.51562 5.85156 9.75 4.97656C9.98438 4.11719 10.1016 3 10.1016 1.625H4.875C4.875 3 5 4.125 5.25 5C5.48438 5.85938 5.79688 6.57031 6.1875 7.13281C6.5625 7.67969 6.96875 8.1875 7.40625 8.65625C7.4375 8.6875 7.46875 8.71875 7.5 8.75ZM12.4453 5.65625C12.7578 5.15625 12.9531 4.67969 13.0312 4.22656C13.1094 3.77344 13.1406 3.40625 13.125 3.125H11.2266C11.1797 3.82812 11.0469 4.57031 10.8281 5.35156C10.625 6.13281 10.3125 6.86719 9.89062 7.55469C11.0312 7.10156 11.8828 6.46875 12.4453 5.65625Z" fill="#324153"/>
</svg>
